<svg xmlns="http://www.w3.org/2000/svg" width="374.729" height="68.936" viewBox="0 0 374.729 68.936">
  <g id="logo2" transform="translate(-376.271 -81.012)">
    <g id="kyb" transform="translate(360.712 80.694)">
      <g id="shield-lock" transform="translate(17.584 6.425)">
        <path id="Path_3734" data-name="Path 3734" d="M17.492,6.045Q12.061,7.542,6.707,9.3A1.829,1.829,0,0,0,5.46,10.782c-2.106,15.8,2.76,27.335,8.565,34.931A40.775,40.775,0,0,0,22.72,54.2a23.1,23.1,0,0,0,3.4,2.026,8.452,8.452,0,0,0,1.114.449,2.091,2.091,0,0,0,.384.1,2.339,2.339,0,0,0,.38-.1,8.263,8.263,0,0,0,1.118-.449,23.651,23.651,0,0,0,3.4-2.026c3.306-2.38,6.237-6.326,8.695-9.575,5.805-7.592,10.672-18.042,8.565-33.846A1.825,1.825,0,0,0,48.519,9.3c-2.475-.81-6.653-2.129-10.786-3.251-4.22-1.144-8.1-1.992-10.12-1.992s-5.9.848-10.12,1.992ZM16.481,2.129C20.606,1.007,24.989,0,27.613,0s7.007,1.007,11.132,2.129c4.22,1.141,8.474,2.49,10.976,3.308a5.855,5.855,0,0,1,3.969,4.8c2.266,17.021-2.992,28.55-9.371,36.9-2.705,3.57-5.931,7.8-9.569,10.411a27.217,27.217,0,0,1-3.984,2.376,8.064,8.064,0,0,1-3.152.912,8.082,8.082,0,0,1-3.152-.912,27.214,27.214,0,0,1-3.984-2.376,44.774,44.774,0,0,1-9.569-9.326C4.528,39.87-.73,27.255,1.536,10.234a5.855,5.855,0,0,1,3.969-4.8q5.447-1.786,10.976-3.308Z" transform="translate(-1)" fill="#1c30e0" stroke="#1c30e0" stroke-width="4"/>
        <path id="Path_3735" data-name="Path 3735" d="M17.906,10.7a5.7,5.7,0,0,1-3.8,5.38l1.464,7.566A1.9,1.9,0,0,1,13.7,25.908h-3a1.9,1.9,0,0,1-1.863-2.262L10.3,16.08a5.7,5.7,0,1,1,7.6-5.38Z" transform="translate(14.409 14.011)" fill="#1c30e0" stroke="#1c30e0" stroke-width="4"/>
      </g>
      <text id="KYB_Custodian" data-name="KYB Custodian" transform="translate(87.288 39.318)" fill="#1b404b" font-size="40" font-family="Inter-Black, Inter" font-weight="800"><tspan x="0" y="0">KYB Custodian</tspan></text>
      <text id="powered_by" data-name="powered by" transform="translate(88.288 62.318)" fill="#1b404b" font-size="14" font-family="Inter-Medium, Inter" font-weight="500"><tspan x="0" y="0">powered by</tspan></text>
    </g>
    <g id="logo" transform="translate(534.518 130.005)">
      <g id="Logo_en_blanco" transform="translate(0 0)">
        <path id="Path_1045" data-name="Path 1045" d="M79.216,29.524h23.992c.271,0,.516-.1.516-.23V16.13c0-.121-.217-.23-.516-.23H79.216c-.271,0-.516.1-.516.23V29.294C78.727,29.427,78.944,29.524,79.216,29.524Z" transform="translate(-61.33 -15.9)" fill="none" stroke="#1c30e0" stroke-miterlimit="10" stroke-width="2.133"/>
        <path id="Path_1046" data-name="Path 1046" d="M20.861,105.575H16.247v-1.547h4.37a.872.872,0,0,0,1-.977V96.32H17.55c-.868.027-1.3.407-1.3,1.194V99.9a.944.944,0,0,0,1.086,1.058h3.528v1.52H17.007a2.026,2.026,0,0,1-2.307-2.253V97.161A2.071,2.071,0,0,1,17.007,94.8h6.134v8.468A2,2,0,0,1,20.861,105.575Z" transform="translate(-14.7 -90.268)" fill="#1c30e0"/>
        <path id="Path_1047" data-name="Path 1047" d="M52.4,102.654v-5.4A2.015,2.015,0,0,1,54.707,95H57.8v1.52h-2.85a.876.876,0,0,0-1,.95v5.184Z" transform="translate(-42.168 -90.413)" fill="#1c30e0"/>
        <g id="Group_82" data-name="Group 82" transform="translate(17.071 0)">
          <path id="Path_1048" data-name="Path 1048" d="M102.271,78.1h-23.8a.857.857,0,0,0-.868.868V91.127a.857.857,0,0,0,.868.868h23.8a.857.857,0,0,0,.868-.868V78.968A.857.857,0,0,0,102.271,78.1ZM80.884,90.34H79.337V82.605h1.547Zm0-9.173H79.31V79.593h1.574ZM91.143,90.34H85.009A2.093,2.093,0,0,1,82.7,87.979V84.912c0-1.466.76-2.2,2.307-2.253h3.827v1.547H85.308a.955.955,0,0,0-1.086,1.058v2.388c0,.787.461,1.167,1.33,1.167H89.6V79.593h1.547ZM101.4,88.413c-.027,1.276-.814,1.927-2.334,1.927H93.016V88.82h5.862c.651,0,.977-.3,1-.841,0-.461-.326-.706-.977-.706H95.323c-1.547,0-2.307-.624-2.307-1.873v-.814c0-1.276.787-1.927,2.307-1.927H101.4v1.493H95.323a.665.665,0,0,0-.76.76.7.7,0,0,0,.76.787h3.8c1.547,0,2.307.651,2.307,1.981v.733Z" transform="translate(-77.6 -78.1)" fill="#1c30e0"/>
        </g>
      </g>
    </g>
  </g>
</svg>
