<svg xmlns="http://www.w3.org/2000/svg" width="440.486" height="51.425" viewBox="0 0 440.486 51.425">
  <g id="logo-group" transform="translate(-368.482 -74.555)">
    <g id="logo" transform="translate(728.854 59.721)">
      <g id="Logo_en_blanco" transform="translate(14.7 15.9)">
        <path id="Path_1045" data-name="Path 1045" d="M79.483,62.2H115.9a.782.782,0,0,0,.783-.783V16.683a.782.782,0,0,0-.783-.783H79.483a.782.782,0,0,0-.783.783V61.421A.81.81,0,0,0,79.483,62.2Z" transform="translate(-52.335 -15.9)" fill="none" stroke="#1c30e0" stroke-miterlimit="10" stroke-width="2.133"/>
        <path id="Path_1046" data-name="Path 1046" d="M24.051,111.155h-7v-2.348h6.633a1.324,1.324,0,0,0,1.524-1.483V97.107H19.026c-1.318.041-1.977.618-1.977,1.813v3.625a1.433,1.433,0,0,0,1.648,1.607h5.355v2.307H18.2c-2.307,0-3.5-1.153-3.5-3.419V98.384c0-2.389,1.195-3.584,3.5-3.584h9.31v12.853C27.553,110,26.4,111.155,24.051,111.155Z" transform="translate(-14.7 -62.297)" fill="#1c30e0"/>
        <path id="Path_1047" data-name="Path 1047" d="M52.4,106.617v-8.2C52.4,96.153,53.553,95,55.9,95h4.7v2.307H56.272a1.329,1.329,0,0,0-1.524,1.442v7.868H52.4Z" transform="translate(-36.869 -62.414)" fill="#1c30e0"/>
        <g id="Group_82" data-name="Group 82" transform="translate(25.912 25.624)">
          <path id="Path_1048" data-name="Path 1048" d="M115.047,78.1H78.918A1.3,1.3,0,0,0,77.6,79.418V97.874a1.3,1.3,0,0,0,1.318,1.318h36.129a1.3,1.3,0,0,0,1.318-1.318V79.418A1.3,1.3,0,0,0,115.047,78.1ZM82.585,96.679H80.237V84.939h2.348Zm0-13.924H80.2V80.366h2.389ZM98.157,96.679h-9.31c-2.307-.041-3.5-1.236-3.5-3.584V88.44c0-2.225,1.153-3.337,3.5-3.419h5.809v2.348H89.3a1.45,1.45,0,0,0-1.648,1.607V92.6c0,1.195.7,1.771,2.019,1.771h6.138V80.366h2.348Zm15.572-2.925c-.041,1.936-1.236,2.925-3.543,2.925H101V94.372h8.9c.989,0,1.483-.453,1.524-1.277,0-.7-.494-1.071-1.483-1.071H104.5c-2.348,0-3.5-.948-3.5-2.843V87.946c0-1.936,1.195-2.925,3.5-2.925h9.228v2.266H104.5a1.009,1.009,0,0,0-1.153,1.153,1.055,1.055,0,0,0,1.153,1.195h5.767c2.348,0,3.5.989,3.5,3.007v1.112Z" transform="translate(-77.6 -78.1)" fill="#1c30e0"/>
        </g>
        <g id="Group_83" data-name="Group 83" transform="translate(35.016 3.46)">
          <path id="Path_1049" data-name="Path 1049" d="M152.224,37.848a.824.824,0,1,0-.824-.824A.826.826,0,0,0,152.224,37.848Z" transform="translate(-130.102 -31.298)" fill="none"/>
          <path id="Path_1050" data-name="Path 1050" d="M119.144,24.3a1.057,1.057,0,0,1,.742.288l4.12,4.12a1,1,0,0,1,0,1.442l-1.442,1.442a1,1,0,0,1-1.442,0L117,27.472a1,1,0,0,1,0-1.442l1.442-1.442a1.075,1.075,0,0,1,.7-.288H99.7V45.227h24.8V24.3ZM121,33.033l-3.254,3.254.783.783a1.582,1.582,0,0,1-.082,2.266,1.537,1.537,0,0,1-1.112.494,1.952,1.952,0,0,1-.494,1.112,1.537,1.537,0,0,1-1.112.494,1.953,1.953,0,0,1-.494,1.112,1.608,1.608,0,0,1-1.112.494,1.952,1.952,0,0,1-.494,1.112,1.582,1.582,0,0,1-2.266.082l-1.854-1.9-.948.948a1.143,1.143,0,0,1-1.607-1.607,1.143,1.143,0,0,1-1.607-1.607,1.143,1.143,0,0,1-1.607-1.607,1.143,1.143,0,0,1-1.607-1.607l.906-.906-2.843-2.843a.522.522,0,0,1,0-.742.529.529,0,0,1,.742.082l2.8,2.8a1.09,1.09,0,0,1,1.442.165,1.062,1.062,0,0,1,.082,1.524,1.143,1.143,0,0,1,1.607,1.607,1.143,1.143,0,0,1,1.607,1.607,1.062,1.062,0,0,1,1.524.082,1.092,1.092,0,0,1,.206,1.4l1.895,1.9a.654.654,0,0,0,.906-.906l-1.565-1.565a.522.522,0,0,1,0-.742.474.474,0,0,1,.7,0l1.565,1.565a.654.654,0,0,0,.906-.906l-1.565-1.565a.524.524,0,0,1,.742-.742l1.565,1.565a.654.654,0,0,0,.906-.906L114.7,37.771a.524.524,0,0,1,.742-.742L117,38.595a.654.654,0,0,0,.906-.906s-5.52-5.561-6.591-6.55c-.124-.124-.412-.412-1.03.206a3.409,3.409,0,0,0-.453.618l-.7,1.318a2.886,2.886,0,0,1-.33.412,1.928,1.928,0,0,1-3.172-.494,1.182,1.182,0,0,1-.124-1.03l2.1-4.943a2.173,2.173,0,0,1,.412-.577,3.363,3.363,0,0,1,3.419-.783l4.7,1.483a.9.9,0,0,1,.206.124l4.7,4.7A.731.731,0,0,1,121,33.033Z" transform="translate(-99.7 -24.3)" fill="none"/>
          <path id="Path_1051" data-name="Path 1051" d="M116.728,29.761a.9.9,0,0,0-.206-.124l-4.7-1.483a3.329,3.329,0,0,0-3.419.783,2.173,2.173,0,0,0-.412.577l-2.1,4.943a1.182,1.182,0,0,0,.124,1.03,2.136,2.136,0,0,0,1.318,1.071,1.911,1.911,0,0,0,1.854-.577,2.888,2.888,0,0,0,.33-.412l.7-1.318a3.41,3.41,0,0,1,.453-.618c.618-.618.906-.33,1.03-.206,1.071,1.03,6.591,6.55,6.591,6.55a.654.654,0,0,1-.906.906l-1.565-1.565a.524.524,0,1,0-.742.742l1.565,1.565a.654.654,0,0,1-.906.906l-1.565-1.565a.524.524,0,0,0-.742.742L115,43.273a.654.654,0,0,1-.906.906l-1.565-1.565a.474.474,0,0,0-.7,0,.522.522,0,0,0,0,.742l1.565,1.565a.654.654,0,0,1-.906.906l-1.9-1.9a1.092,1.092,0,0,0-.206-1.4,1.062,1.062,0,0,0-1.524-.082,1.143,1.143,0,0,0-1.607-1.607,1.143,1.143,0,0,0-1.607-1.607,1.062,1.062,0,0,0-.082-1.524,1.09,1.09,0,0,0-1.442-.165l-2.8-2.8a.529.529,0,0,0-.742-.082.522.522,0,0,0,0,.742l2.843,2.843-.906.906a1.143,1.143,0,0,0,1.607,1.607,1.143,1.143,0,0,0,1.607,1.607,1.143,1.143,0,0,0,1.607,1.607,1.143,1.143,0,0,0,1.607,1.607l.948-.948,1.854,1.9a1.62,1.62,0,0,0,2.266-.082,1.537,1.537,0,0,0,.494-1.112,1.953,1.953,0,0,0,1.112-.494,1.537,1.537,0,0,0,.494-1.112,1.953,1.953,0,0,0,1.112-.494,1.537,1.537,0,0,0,.494-1.112,1.952,1.952,0,0,0,1.112-.494,1.582,1.582,0,0,0,.082-2.266l-.783-.783,3.254-3.254a.474.474,0,0,0,0-.7Z" transform="translate(-100.126 -26.465)" fill="#1c30e0"/>
          <path id="Path_1052" data-name="Path 1052" d="M141.159,26.13a1,1,0,0,0,0,1.442l4.12,4.12a1,1,0,0,0,1.442,0l1.442-1.442a1,1,0,0,0,0-1.442l-4.12-4.12a.993.993,0,0,0-.742-.288h0a.9.9,0,0,0-.7.288Zm4.861,3.09a.824.824,0,1,1-.824.824A.826.826,0,0,1,146.02,29.22Z" transform="translate(-123.898 -24.359)" fill="#1c30e0"/>
        </g>
        <g id="Group_85" data-name="Group 85" transform="translate(32.153 3.481)">
          <g id="Group_84" data-name="Group 84">
            <path id="Path_1053" data-name="Path 1053" d="M97.348,35.9a.948.948,0,1,0,.948.947A.908.908,0,0,0,97.348,35.9Z" transform="translate(-94.896 -31.142)" fill="none"/>
            <path id="Path_1054" data-name="Path 1054" d="M100.062,26.1,98.62,24.659a1,1,0,0,0-1.442,0l-4.12,4.12a1,1,0,0,0,0,1.442L94.5,31.662a1,1,0,0,0,1.442,0l4.12-4.12A1,1,0,0,0,100.062,26.1ZM95.2,31.044a.947.947,0,1,1,.947-.948A.932.932,0,0,1,95.2,31.044Z" transform="translate(-92.75 -24.35)" fill="#1c30e0"/>
          </g>
        </g>
      </g>
    </g>
    <g id="kyb" transform="translate(-225 8)">
      <g id="shield-lock" transform="translate(595 73)">
        <path id="Path_3734" data-name="Path 3734" d="M12.788,4.321Q8.906,5.391,5.079,6.647a1.307,1.307,0,0,0-.891,1.06C2.682,19,6.16,27.245,10.31,32.675a29.145,29.145,0,0,0,6.215,6.068,16.513,16.513,0,0,0,2.427,1.448,6.042,6.042,0,0,0,.8.321,1.5,1.5,0,0,0,.274.068,1.672,1.672,0,0,0,.272-.068,5.907,5.907,0,0,0,.8-.321,16.905,16.905,0,0,0,2.427-1.448c2.363-1.7,4.458-4.522,6.215-6.844,4.15-5.427,7.628-12.9,6.122-24.192a1.3,1.3,0,0,0-.891-1.06C33.2,6.068,30.21,5.125,27.256,4.323A35.345,35.345,0,0,0,20.022,2.9a35.379,35.379,0,0,0-7.234,1.424Zm-.723-2.8A36.994,36.994,0,0,1,20.022,0a36.994,36.994,0,0,1,7.957,1.522C31,2.337,34.036,3.3,35.824,3.886a4.185,4.185,0,0,1,2.837,3.429c1.62,12.166-2.139,20.407-6.7,26.372-1.934,2.552-4.239,5.574-6.84,7.442a19.454,19.454,0,0,1-2.848,1.7,5.764,5.764,0,0,1-2.253.652,5.776,5.776,0,0,1-2.253-.652,19.452,19.452,0,0,1-2.848-1.7,32,32,0,0,1-6.84-6.666C3.522,28.5-.236,19.482,1.383,7.315A4.185,4.185,0,0,1,4.22,3.886q3.894-1.277,7.845-2.364Z" transform="translate(-1)" fill="#1c30e0" stroke="#1c30e0" stroke-width="3"/>
        <path id="Path_3735" data-name="Path 3735" d="M14.653,9.075a4.076,4.076,0,0,1-2.717,3.845l1.046,5.408a1.359,1.359,0,0,1-1.334,1.617H9.506a1.359,1.359,0,0,1-1.332-1.617L9.218,12.92a4.076,4.076,0,1,1,5.435-3.845Z" transform="translate(8.446 8.589)" fill="#1c30e0" stroke="#1c30e0" stroke-width="3"/>
      </g>
      <text id="GRIDS_KYB_Custodian" data-name="GRIDS KYB Custodian" transform="translate(647 105)" fill="#1b404b" font-size="28" font-family="Inter-ExtraBold, Inter" font-weight="800"><tspan x="0" y="0">GRIDS KYB Custodian</tspan></text>
    </g>
  </g>
</svg>
