<svg xmlns="http://www.w3.org/2000/svg" width="46" height="46" viewBox="0 0 46 46">
  <path id="twitter" d="M25,2A23,23,0,1,0,48,25,23.025,23.025,0,0,0,25,2ZM36.237,20.524c.01.236.016.476.016.717A15.754,15.754,0,0,1,12,34.511a11.2,11.2,0,0,0,8.2-2.293,5.55,5.55,0,0,1-5.175-3.847,5.528,5.528,0,0,0,2.5-.095,5.544,5.544,0,0,1-4.441-5.432v-.07a5.517,5.517,0,0,0,2.509.694,5.55,5.55,0,0,1-1.715-7.4A15.735,15.735,0,0,0,25.3,21.859a5.542,5.542,0,0,1,9.437-5.052,11.1,11.1,0,0,0,3.518-1.343,5.555,5.555,0,0,1-2.437,3.064A11.14,11.14,0,0,0,39,17.655,11.263,11.263,0,0,1,36.237,20.524Z" transform="translate(-2 -2)" fill="#1c30e0"/>
</svg>
